# xmcd
#
# Track frame offsets: 
#        150
#        7515
#        45036
#        55445
#        63561
#        90342
#        108995
#        127046
#        144656
#        170509
#        193082
#
# Disc length: 2723 seconds
#
# Revision: 1
# Processed by: cddbd v1.5.2PL0 Copyright (c) Steve Scherf et al.
# Submitted via: ExactAudioCopy v0.99pb4
#
DISCID=8a0aa10b
DTITLE=Floyd Lee Band - Full Moon Lightnin' Soundtrack
DYEAR=2009
DGENRE=Blues
TTITLE0=Nella (Instrumental)
TTITLE1=Lunar Landing
TTITLE2=Ridin' On Empty
TTITLE3=Bird With A Broken Wing
TTITLE4=Down In Lamar
TTITLE5=Mean Ol' Frisco
TTITLE6=Red Sun
TTITLE7=Full Moon Lightnin'
TTITLE8=Can't You See
TTITLE9=Mean Blues
TTITLE10=Blues Is A Beautiful Woman
EXTD=
EXTT0=
EXTT1=
EXTT2=
EXTT3=
EXTT4=
EXTT5=
EXTT6=
EXTT7=
EXTT8=
EXTT9=
EXTT10=
PLAYORDER=
